<svg width="51" height="17" viewBox="0 0 51 17" fill="none" xmlns="http://www.w3.org/2000/svg">
<path d="M8.92799 14.3761V16.3201H-6.19888e-06V6.81877e-05H2.08799V14.3761H8.92799ZM11.2656 6.81877e-05H13.4256V10.4641C13.4256 11.7761 13.6976 12.8001 14.2416 13.5361C14.8016 14.2721 15.6656 14.6401 16.8336 14.6401C18.0176 14.6401 18.8816 14.2721 19.4256 13.5361C19.9696 12.8001 20.2416 11.7761 20.2416 10.4641V6.81877e-05H22.4016V10.4641C22.4016 12.3681 21.9376 13.8641 21.0096 14.9521C20.0816 16.0241 18.6896 16.5601 16.8336 16.5601C14.9616 16.5601 13.5616 16.0241 12.6336 14.9521C11.7216 13.8641 11.2656 12.3681 11.2656 10.4641V6.81877e-05ZM37.6521 6.81877e-05L32.4441 16.3201H30.3321L25.1001 6.81877e-05H27.3081L29.9001 8.28007L31.4601 13.5121L33.0441 8.25607L35.5881 6.81877e-05H37.6521Z" fill="#C9CFDD"/>
<path d="M48.39 16.3201L47.166 12.5281H40.974L39.75 16.3201H37.71L43.134 6.81877e-05H45.102L50.55 16.3201H48.39ZM42.486 7.82407L41.574 10.6321H46.542L45.63 7.82407L44.07 2.78407L42.486 7.82407Z" fill="url(#paint0_linear_25_3)"/>
<defs>
<linearGradient id="paint0_linear_25_3" x1="24.456" y1="-7.67993" x2="24.456" y2="21.3201" gradientUnits="userSpaceOnUse">
<stop stop-color="#C9CFDD"/>
<stop offset="1" stop-color="#FF3D7F" stop-opacity="0.9"/>
</linearGradient>
</defs>
</svg>
